<?xml version="1.0" encoding="utf-8"?>
<!-- Generator: Adobe Illustrator 21.0.2, SVG Export Plug-In . SVG Version: 6.00 Build 0)  -->
<svg version="1.1" id="Layer_1" xmlns="http://www.w3.org/2000/svg" xmlns:xlink="http://www.w3.org/1999/xlink" x="0px" y="0px"
	 viewBox="0 0 1382.9 532.5" style="enable-background:new 0 0 1382.9 532.5;" xml:space="preserve">
<style type="text/css">
	.st0{fill:none;}
	.st1{fill:#C76478;}
	.st2{fill:#32B3C7;}
	.st3{fill:#284664;}
	.st4{fill:#F9A95A;}
	.st5{fill:#327846;}
</style>
<title>IOT_Main_LogoIcn</title>
<g>
	<g id="Layer_1_1_">
		<path class="st0" d="M262.5,262.9c-35.2,0-63.7,28.6-63.7,63.8c0,35.2,28.6,63.7,63.8,63.7c35.2,0,63.7-28.6,63.7-63.8
			C326.3,291.4,297.7,262.9,262.5,262.9C262.5,262.9,262.5,262.9,262.5,262.9z"/>
		<path class="st1" d="M581.3,390.4c-35.2,0-63.8,28.5-63.8,63.7s28.5,63.8,63.7,63.8c35.2,0,63.8-28.5,63.8-63.7c0,0,0,0,0,0
			C645,418.9,616.5,390.4,581.3,390.4z"/>
		<path class="st1" d="M581.3,261.8c35.2,0,63.8-28.5,63.8-63.8s-28.5-63.8-63.8-63.8h-63.8V71.6c0-35.2-28.5-63.7-63.8-63.7
			S390,36.4,390,71.6v62.7h-63.7c-8.5,0-17,1.7-24.9,5c87,18,152.4,95,152.4,187.3c0.1,53.7-22.5,105-62.3,141.2
			c7.5,34.4,41.5,56.1,75.9,48.6c29.3-6.4,50.1-32.3,50.1-62.3V261.8H581.3z"/>
		<path class="st2" d="M390,261.8h-63.7c-35.2,0-63.8-28.5-63.8-63.7c0-25.6,15.3-48.8,38.9-58.8c-72.6-15-147.4,13.3-191.9,72.6
			c16.1,12,25.6,30.9,25.5,51v191.2c0,4.6-0.5,9.2-1.5,13.7c73.1,66.7,184.9,66.7,258,0c-1-4.5-1.5-9.1-1.5-13.7V261.8z
			 M262.5,390.4c-35.2,0-63.7-28.6-63.7-63.8c0-35.2,28.6-63.7,63.8-63.7c35.2,0,63.7,28.6,63.7,63.8
			C326.3,361.8,297.8,390.3,262.5,390.4C262.5,390.4,262.5,390.4,262.5,390.4z"/>
		<g>
			<path class="st1" d="M453.8,326.6c0-92.3-65.4-169.3-152.4-187.3c-32.4,13.7-47.6,51.1-33.9,83.6c10,23.6,33.1,38.9,58.7,38.9
				H390v192.3c0,4.6,0.5,9.2,1.5,13.7C431.2,431.6,453.8,380.3,453.8,326.6z"/>
		</g>
		<path class="st3" d="M453.8,326.6c0-92.3-65.4-169.3-152.4-187.3c-32.4,13.7-47.6,51.1-33.9,83.6c10,23.6,33.1,38.9,58.7,38.9H390
			v192.3c0,4.6,0.5,9.2,1.5,13.7C431.2,431.6,453.8,380.3,453.8,326.6z"/>
		<path class="st4" d="M71.3,156.6c35.2,0,63.8-28.6,63.7-63.8s-28.6-63.8-63.8-63.7S7.5,57.7,7.5,92.9c0,0,0,0,0,0
			C7.5,128.1,36.1,156.6,71.3,156.6L71.3,156.6z"/>
		<path class="st4" d="M71.3,326.6c-0.1-41.4,13.3-81.6,38.2-114.7c-28.1-21.2-68-15.6-89.2,12.5C11.9,235.5,7.4,249,7.5,262.9
			v191.2c0,35.2,28.6,63.7,63.8,63.7c29.9,0,55.8-20.8,62.2-50C93.8,431.6,71.2,380.3,71.3,326.6z"/>
		<g>
			<path class="st2" d="M135,262.9c0-20.1-9.5-39-25.5-51c-59,78.8-48.6,189.5,24,255.9c1-4.5,1.5-9.1,1.5-13.7V262.9z"/>
		</g>
		<path class="st5" d="M135,262.9c0-20.1-9.5-39-25.5-51c-59,78.8-48.6,189.5,24,255.9c1-4.5,1.5-9.1,1.5-13.7V262.9z"/>
		<path class="st3" d="M727.4,135.3h27.3v92.2h-27.3V135.3z"/>
		<path class="st3" d="M770.2,135.3h75.3v21.1h-48v14.4h43.5v21h-43.5v14.6h49.3v21h-76.6L770.2,135.3z"/>
		<path class="st3" d="M860,135.3h27.3v69.3H926v22.9h-66V135.3z"/>
		<path class="st3" d="M928.5,135.3h81v21.8h-26.8v70.3h-27.4v-70.3h-26.7L928.5,135.3z"/>
		<path class="st3" d="M1068.1,157.6c-5.8-2-10.7-3-14.5-3c-2-0.1-3.9,0.4-5.6,1.4c-1.3,0.9-2.1,2.4-2,4c0,2.5,1.3,4.4,3.9,5.7
			c4,1.9,8.2,3.3,12.5,4.4c5.5,1.5,10.8,3.4,16,5.6c4.3,1.9,8.1,4.9,11,8.6c3.1,3.9,4.6,9,4.6,15.3s-1.7,11.8-5,16.2
			c-3.5,4.6-8.3,8-13.7,9.9c-6.2,2.3-12.7,3.4-19.2,3.3c-8.1,0-16.1-1.4-23.8-4c-7.5-2.4-14.4-6.1-20.6-11l10.3-20.8
			c5.1,4.3,10.8,7.7,17,10.2c6.7,2.8,12.5,4.1,17.3,4.1c2.5,0.1,4.9-0.4,7-1.7c1.6-1.1,2.6-2.9,2.5-4.9c0-2.5-1.3-4.5-4.1-5.8
			c-4.1-1.8-8.3-3.3-12.6-4.3c-5.4-1.3-10.7-3.1-15.9-5.2c-4.3-1.8-8-4.7-10.9-8.3c-3.1-3.8-4.6-8.7-4.6-14.9
			c-0.1-5.6,1.6-11,4.8-15.6c3.4-4.6,8-8.2,13.3-10.2c6.4-2.5,13.2-3.7,20-3.5c7,0,13.9,1,20.6,3c6.3,1.7,12.3,4.4,17.9,7.8
			l-10.1,21C1079.2,162,1073.8,159.6,1068.1,157.6z"/>
		<path class="st3" d="M797.7,284c7.4,4,13.5,9.8,17.8,17c8.7,14.9,8.7,33.4,0,48.3c-4.3,7.2-10.5,13.1-17.8,17.2
			c-15.7,8.3-34.5,8.3-50.2,0c-7.4-4-13.5-9.9-17.8-17.1c-13.4-22.3-6.1-51.1,16.1-64.5c0.5-0.3,1.1-0.6,1.6-0.9
			C763.2,275.8,782,275.8,797.7,284L797.7,284z M758.7,299.9c-4.3,2.5-7.9,6.2-10.3,10.6c-5.1,9.2-5.1,20.4,0,29.6
			c2.5,4.4,6.1,8,10.4,10.6c4.3,2.6,9.2,4,14.2,3.9c4.9,0.1,9.8-1.3,14-3.9c4.3-2.6,7.8-6.3,10.2-10.7c2.5-4.6,3.8-9.7,3.8-14.9
			c0-5.1-1.2-10.2-3.8-14.7c-2.4-4.4-5.9-8-10.2-10.5c-4.2-2.6-9.1-3.9-14-3.9C767.9,296,762.9,297.3,758.7,299.9L758.7,299.9z"/>
		<path class="st3" d="M898.9,307.2c4.7,4.9,7,11.5,7,19.7v44.4h-20.2v-38.5c0-4.5-1.3-8-3.8-10.6s-5.9-3.9-10.2-3.9
			c-5,0.1-8.9,1.8-11.8,5.2s-4.3,7.7-4.3,12.9v34.8h-20.3v-70.7h20.3v12.3c4.9-8.6,13-13,24.4-13.1
			C887.9,299.8,894.2,302.3,898.9,307.2z"/>
		<path class="st3" d="M924.1,273.8h20.2v97.5h-20.2V273.8z"/>
		<path class="st3" d="M982.5,272.3c4.1,4.7,4.1,11.6,0,16.3c-2.1,2.1-5,3.3-8,3.2c-2.9,0.1-5.8-1.1-7.8-3.2
			c-4.1-4.6-4.1-11.6,0-16.2C971.1,268.1,978,268.1,982.5,272.3L982.5,272.3z M964.5,300.6h20.2v70.7h-20.2V300.6z"/>
		<path class="st3" d="M1067.8,307.2c4.7,4.9,7,11.5,7,19.7v44.4h-20.2v-38.5c0-4.5-1.3-8-3.8-10.6s-5.9-3.9-10.2-3.9
			c-5,0.1-9,1.8-11.8,5.2c-3,3.6-4.5,8.2-4.4,12.9v34.8h-20.2v-70.7h20.2v12.3c4.9-8.6,13.1-13,24.5-13.1
			C1056.8,299.8,1063.1,302.3,1067.8,307.2z"/>
		<path class="st3" d="M1148.6,309.8c5.9,6.6,8.9,15.7,8.9,27.5c0,2.1-0.1,3.8-0.1,4.9h-50.7c0.9,4.1,3.2,7.8,6.6,10.4
			c3.4,2.5,7.5,3.9,11.7,3.8c3.3,0,6.6-0.6,9.6-1.9c3.1-1.3,5.9-3.2,8.3-5.6l10.7,10.8c-3.6,4-8.1,7.2-13.1,9.3
			c-5.5,2.2-11.3,3.3-17.2,3.2c-6.8,0.2-13.5-1.4-19.5-4.5c-5.4-2.9-9.9-7.2-12.9-12.6c-6-11.9-6-25.9,0.1-37.8
			c3-5.4,7.5-9.8,12.9-12.8c5.8-3.1,12.3-4.7,18.9-4.5C1134.1,299.9,1142.8,303.2,1148.6,309.8z M1138.4,330.2
			c-0.2-4.7-1.6-8.4-4.5-11.2c-2.8-2.8-6.5-4.2-11.1-4.2c-4.1-0.1-8,1.4-11,4.1c-3.1,3-5.1,7-5.6,11.3H1138.4z"/>
		<path class="st3" d="M720.7,424.1h76.9v17.6h-28.1v74.4h-20.8v-74.4h-28L720.7,424.1z"/>
		<path class="st3" d="M864.7,454.6c5.9,6.6,8.9,15.7,8.9,27.5c0,2.1,0,3.8-0.1,4.9h-50.8c1,4.1,3.3,7.8,6.6,10.4
			c3.4,2.6,7.5,3.9,11.7,3.8c3.3,0,6.6-0.6,9.6-1.9c3.1-1.3,5.9-3.2,8.3-5.6l10.6,10.8c-3.6,4-8.1,7.2-13.1,9.2
			c-5.4,2.2-11.3,3.3-17.2,3.2c-6.8,0.2-13.5-1.4-19.5-4.5c-5.4-2.9-9.9-7.3-12.9-12.6c-3.1-5.8-4.7-12.2-4.5-18.8
			c-0.1-6.6,1.5-13.2,4.6-19c3-5.4,7.5-9.8,12.9-12.8c5.8-3.1,12.3-4.6,18.9-4.5C850.2,444.8,858.8,448.1,864.7,454.6z M854.5,475
			c0-4.2-1.6-8.2-4.5-11.2c-2.8-2.8-6.5-4.2-11.2-4.2c-4.1-0.1-8,1.3-11,4.1c-3.1,3-5,7-5.6,11.2H854.5z"/>
		<path class="st3" d="M920,461.1c-3.3-1.1-6.7-1.7-10.2-1.8c-2-0.1-4.1,0.4-5.9,1.3c-1.4,0.8-2.3,2.3-2.3,3.9c0,2,1.2,3.7,3,4.5
			c3.2,1.5,6.5,2.7,9.9,3.5c4.2,1.2,8.3,2.7,12.3,4.4c3.3,1.5,6.1,3.7,8.4,6.4c2.4,2.9,3.6,6.6,3.6,11.2c0,7-2.7,12.5-8.1,16.4
			c-5.4,3.9-12.3,5.8-20.7,5.8c-5.7,0-11.3-0.8-16.7-2.6c-5.1-1.6-9.8-4-14-7.3l6.6-13.7c3.6,2.8,7.7,5,12,6.5
			c4,1.4,8.3,2.2,12.6,2.3c2.2,0.1,4.5-0.4,6.5-1.4c1.6-0.8,2.5-2.4,2.4-4.1c0-2-1.2-3.9-3.1-4.7c-3.2-1.5-6.5-2.8-9.9-3.7
			c-4.1-1.1-8.1-2.6-12-4.2c-3.2-1.4-6.1-3.6-8.3-6.3c-2.2-2.8-3.4-6.6-3.4-11.1c0-7,2.6-12.4,7.9-16.3c5.3-3.9,11.9-5.8,20-5.8
			c4.9,0,9.7,0.7,14.4,2c4.6,1.3,9.1,3.3,13.1,5.9l-7,13.8C927.7,464.1,923.9,462.4,920,461.1z"/>
		<path class="st3" d="M996.2,512.2c-2.7,1.6-5.7,2.8-8.7,3.6c-3.1,0.8-6.4,1.3-9.6,1.3c-6.6,0-11.9-1.9-16-5.7s-6.2-9.2-6.2-16.2
			v-32.7h-9.8v-13.9h9.8v-19.5h20.1v19.5h19.2v14.1h-19.2v29.2c0,5.4,2.2,8.1,6.5,8.1c3.4-0.1,6.8-1,9.8-2.6L996.2,512.2z"/>
		<path class="st3" d="M1041.5,461.1c-3.3-1.1-6.7-1.7-10.1-1.8c-2.1-0.1-4.1,0.4-5.9,1.3c-1.4,0.8-2.3,2.3-2.2,3.9
			c0,2,1.2,3.7,3,4.5c3.2,1.5,6.4,2.7,9.8,3.5c4.2,1.2,8.3,2.7,12.3,4.4c3.3,1.5,6.2,3.7,8.4,6.4c2.3,2.9,3.5,6.6,3.5,11.2
			c0,7-2.7,12.5-8.1,16.4c-5.4,3.9-12.3,5.8-20.7,5.8c-5.7,0-11.3-0.8-16.7-2.6c-5-1.6-9.8-4-13.9-7.3l6.6-13.7
			c3.6,2.8,7.7,5,12,6.5c4,1.5,8.3,2.2,12.5,2.3c2.3,0.1,4.5-0.4,6.5-1.4c1.5-0.8,2.5-2.4,2.4-4.1c0-2-1.2-3.9-3.1-4.7
			c-3.2-1.6-6.6-2.8-10-3.7c-4.1-1.2-8.1-2.6-12-4.2c-3.2-1.4-6-3.6-8.2-6.3c-2.3-2.8-3.4-6.6-3.4-11.1c0-7,2.6-12.4,7.8-16.3
			c5.3-3.9,11.9-5.8,20-5.8c4.9,0,9.8,0.7,14.5,2c4.7,1.3,9.1,3.3,13.2,5.9l-6.9,13.8C1049.4,464.1,1045.5,462.4,1041.5,461.1z"/>
		<path class="st3" d="M1081.3,506.9c1.1,1.1,1.8,2.6,1.7,4.2c0,1.6-0.6,3.1-1.7,4.3c-1.1,1.2-2.6,1.8-4.2,1.8
			c-1.6,0.1-3.1-0.6-4.1-1.7c-1.1-1.2-1.7-2.7-1.7-4.3c0-1.6,0.6-3.1,1.7-4.2c1.1-1.1,2.6-1.7,4.1-1.7
			C1078.6,505.2,1080.2,505.8,1081.3,506.9z"/>
		<path class="st3" d="M1130,454.8c-4.7-0.1-9.3,1.1-13.3,3.4c-3.9,2.2-7.1,5.5-9.2,9.5c-2.2,4.3-3.4,9.1-3.3,14
			c-0.1,4.9,1,9.7,3.3,14.1c2.1,4,5.3,7.3,9.2,9.6c4.1,2.3,8.6,3.5,13.3,3.4c4.2,0.1,8.4-0.7,12.3-2.3c3.6-1.5,6.9-3.9,9.4-6.9
			l5,5.3c-3.1,3.7-7.1,6.7-11.6,8.5c-4.9,2.1-10.2,3.1-15.5,3c-6.2,0.1-12.2-1.4-17.6-4.4c-5.1-2.9-9.3-7.2-12.2-12.3
			c-5.9-11.2-5.9-24.7,0-35.9c2.8-5.2,7-9.5,12.2-12.3c5.4-3,11.5-4.5,17.6-4.4c5-0.1,10,0.8,14.7,2.6c4.2,1.7,8.1,4.2,11.3,7.4
			l-5,5.9C1145.1,457.5,1137.7,454.6,1130,454.8z"/>
		<path class="st3" d="M1221.9,451.4c5.2,2.8,9.5,7.1,12.3,12.3c3,5.5,4.5,11.6,4.4,17.9c0.1,6.3-1.4,12.5-4.4,18.1
			c-2.9,5.2-7.2,9.5-12.3,12.3c-11.2,5.9-24.6,5.9-35.8,0c-5.2-2.9-9.5-7.1-12.4-12.3c-3-5.5-4.6-11.8-4.5-18.1
			c-0.1-6.3,1.5-12.4,4.5-17.9c2.9-5.2,7.2-9.4,12.4-12.3C1197.4,445.5,1210.7,445.5,1221.9,451.4z M1190.6,458
			c-3.9,2.3-7.1,5.6-9.2,9.6c-4.3,8.9-4.3,19.3,0,28.3c2.1,4,5.3,7.3,9.2,9.6c8.4,4.5,18.5,4.5,26.8,0c3.9-2.2,7.1-5.6,9.2-9.6
			c4.4-8.9,4.4-19.4,0-28.3c-2.1-4-5.3-7.3-9.2-9.6C1209.1,453.5,1199,453.5,1190.6,458z"/>
		<path class="st3" d="M1364.4,454.1c4.5,4.7,6.8,11.3,6.8,19.7v42.3h-9v-40.2c0-6.6-1.8-11.7-5.3-15.3s-8.4-5.5-14.7-5.5
			c-7.3,0.2-13.1,2.7-17.2,7.6c-4.2,4.9-6.3,11.4-6.3,19.5v33.9h-9v-40.2c0-6.6-1.8-11.7-5.3-15.3s-8.4-5.5-14.7-5.5
			c-7.3,0.2-13.1,2.7-17.3,7.6s-6.3,11.4-6.3,19.5v33.9h-8.8v-68.9h8.8v16.2c1.9-5.1,5.5-9.4,10.2-12.3c4.5-2.7,10-4.1,16.5-4.2
			c6.5,0,12,1.6,16.3,4.9c4.4,3.4,7.5,8.2,8.6,13.7c2.1-6.1,5.5-10.7,10.2-13.8s10.5-4.6,17.3-4.7
			C1353.5,447,1359.9,449.4,1364.4,454.1z"/>
	</g>
</g>
</svg>
